<svg xmlns="http://www.w3.org/2000/svg" xmlns:xlink="http://www.w3.org/1999/xlink" version="1.1" width="256" height="256" viewBox="0 0 256 256" xml:space="preserve">

<defs>
</defs>
<g style="stroke: none; stroke-width: 0; stroke-dasharray: none; stroke-linecap: butt; stroke-linejoin: miter; stroke-miterlimit: 10; fill: none; fill-rule: nonzero; opacity: 1;" transform="translate(1.4065934065934016 1.4065934065934016) scale(2.81 2.81)" >
	<path d="M 60.979 48.282 c -3.27 0 -5.929 -2.66 -5.929 -5.929 s 2.659 -5.929 5.929 -5.929 s 5.929 2.66 5.929 5.929 S 64.249 48.282 60.979 48.282 z M 60.979 39.424 c -1.615 0 -2.929 1.314 -2.929 2.929 s 1.313 2.929 2.929 2.929 s 2.929 -1.314 2.929 -2.929 S 62.595 39.424 60.979 39.424 z" style="stroke: none; stroke-width: 1; stroke-dasharray: none; stroke-linecap: butt; stroke-linejoin: miter; stroke-miterlimit: 10; fill: rgb(255,255,255); fill-rule: nonzero; opacity: 1;" transform=" matrix(1 0 0 1 0 0) " stroke-linecap="round" />
	<path d="M 31.298 60.307 H 17.3 v -6.077 l 0.156 -0.315 c 1.485 -2.999 6.133 -5.015 11.565 -5.015 c 1.578 0 3.11 0.169 4.555 0.502 L 32.9 52.325 c -1.224 -0.282 -2.529 -0.426 -3.88 -0.426 c -4.432 0 -7.697 1.54 -8.721 3.078 v 2.329 h 10.998 V 60.307 z" style="stroke: none; stroke-width: 1; stroke-dasharray: none; stroke-linecap: butt; stroke-linejoin: miter; stroke-miterlimit: 10; fill: rgb(255,255,255); fill-rule: nonzero; opacity: 1;" transform=" matrix(1 0 0 1 0 0) " stroke-linecap="round" />
	<path d="M 29.021 48.282 c -3.27 0 -5.929 -2.66 -5.929 -5.929 s 2.66 -5.929 5.929 -5.929 s 5.929 2.66 5.929 5.929 S 32.29 48.282 29.021 48.282 z M 29.021 39.424 c -1.615 0 -2.929 1.314 -2.929 2.929 s 1.314 2.929 2.929 2.929 s 2.929 -1.314 2.929 -2.929 S 30.636 39.424 29.021 39.424 z" style="stroke: none; stroke-width: 1; stroke-dasharray: none; stroke-linecap: butt; stroke-linejoin: miter; stroke-miterlimit: 10; fill: rgb(255,255,255); fill-rule: nonzero; opacity: 1;" transform=" matrix(1 0 0 1 0 0) " stroke-linecap="round" />
	<path d="M 84.505 84.21 H 5.495 C 2.465 84.21 0 81.745 0 78.715 v -67.43 C 0 8.255 2.465 5.79 5.495 5.79 h 79.01 c 3.03 0 5.495 2.465 5.495 5.495 v 67.43 C 90 81.745 87.535 84.21 84.505 84.21 z M 5.495 8.79 C 4.119 8.79 3 9.909 3 11.285 v 67.43 c 0 1.376 1.119 2.495 2.495 2.495 h 79.01 c 1.376 0 2.495 -1.119 2.495 -2.495 v -67.43 c 0 -1.375 -1.119 -2.495 -2.495 -2.495 H 5.495 z" style="stroke: none; stroke-width: 1; stroke-dasharray: none; stroke-linecap: butt; stroke-linejoin: miter; stroke-miterlimit: 10; fill: rgb(255,255,255); fill-rule: nonzero; opacity: 1;" transform=" matrix(1 0 0 1 0 0) " stroke-linecap="round" />
	<path d="M 60.202 60.307 H 29.798 V 52.79 l 0.156 -0.315 c 1.907 -3.851 7.954 -6.438 15.046 -6.438 c 5.094 0 9.86 1.383 12.751 3.698 c 1.03 0.824 1.803 1.746 2.295 2.74 l 0.156 0.314 V 60.307 z M 32.798 57.307 h 24.404 v -3.783 c -0.304 -0.499 -0.748 -0.984 -1.326 -1.447 c -2.376 -1.903 -6.441 -3.04 -10.876 -3.04 c -6.302 0 -10.814 2.213 -12.202 4.488 V 57.307 z" style="stroke: none; stroke-width: 1; stroke-dasharray: none; stroke-linecap: butt; stroke-linejoin: miter; stroke-miterlimit: 10; fill: rgb(255,255,255); fill-rule: nonzero; opacity: 1;" transform=" matrix(1 0 0 1 0 0) " stroke-linecap="round" />
	<path d="M 45 44.516 c -4.101 0 -7.438 -3.336 -7.438 -7.438 s 3.336 -7.438 7.438 -7.438 c 4.101 0 7.438 3.336 7.438 7.438 S 49.101 44.516 45 44.516 z M 45 32.641 c -2.447 0 -4.438 1.991 -4.438 4.438 s 1.991 4.438 4.438 4.438 c 2.447 0 4.438 -1.991 4.438 -4.438 S 47.447 32.641 45 32.641 z" style="stroke: none; stroke-width: 1; stroke-dasharray: none; stroke-linecap: butt; stroke-linejoin: miter; stroke-miterlimit: 10; fill: rgb(255,255,255); fill-rule: nonzero; opacity: 1;" transform=" matrix(1 0 0 1 0 0) " stroke-linecap="round" />
	<rect x="52.67" y="70.26" rx="0" ry="0" width="18.53" height="4.46" style="stroke: none; stroke-width: 1; stroke-dasharray: none; stroke-linecap: butt; stroke-linejoin: miter; stroke-miterlimit: 10; fill: rgb(255,255,255); fill-rule: nonzero; opacity: 1;" transform=" matrix(1 0 0 1 0 0) "/>
	<path d="M 72.7 60.307 H 58.702 v -3 H 69.7 v -2.329 c -1.023 -1.538 -4.289 -3.078 -8.721 -3.078 c -1.34 0 -2.632 0.141 -3.842 0.417 l -0.67 -2.924 c 1.43 -0.327 2.947 -0.493 4.512 -0.493 c 5.433 0 10.08 2.016 11.565 5.015 l 0.155 0.315 V 60.307 z" style="stroke: none; stroke-width: 1; stroke-dasharray: none; stroke-linecap: butt; stroke-linejoin: miter; stroke-miterlimit: 10; fill: rgb(255,255,255); fill-rule: nonzero; opacity: 1;" transform=" matrix(1 0 0 1 0 0) " stroke-linecap="round" />
	<path d="M 80.51 76.221 H 9.49 c -0.829 0 -1.5 -0.672 -1.5 -1.5 V 15.28 c 0 -0.829 0.671 -1.5 1.5 -1.5 h 71.02 c 0.828 0 1.5 0.671 1.5 1.5 v 59.441 C 82.01 75.549 81.338 76.221 80.51 76.221 z M 10.99 73.221 h 68.02 V 16.78 H 10.99 V 73.221 z" style="stroke: none; stroke-width: 1; stroke-dasharray: none; stroke-linecap: butt; stroke-linejoin: miter; stroke-miterlimit: 10; fill: rgb(255,255,255); fill-rule: nonzero; opacity: 1;" transform=" matrix(1 0 0 1 0 0) " stroke-linecap="round" />
</g>
</svg>